<?xml version="1.0" standalone="no"?>
<!DOCTYPE svg PUBLIC "-//W3C//DTD SVG 1.1//EN" "http://www.w3.org/Graphics/SVG/1.1/DTD/svg11.dtd" >
<!--
2013-9-30: Created.
-->
<svg>
<metadata>
Created by iconfont
</metadata>
<defs>

<font id="iconfont" horiz-adv-x="1024" >
  <font-face
    font-family="iconfont"
    font-weight="500"
    font-stretch="normal"
    units-per-em="1024"
    ascent="896"
    descent="-128"
  />
    <missing-glyph />
    
    <glyph glyph-name="icfunlinebrand" unicode="&#59078;" d="M785.066667 861.87008 238.933333 861.87008C138.786133 861.87008 68.266667 826.098347 68.266667 725.336747L34.133333 42.67008C34.133333-32.730453 95.266133-93.863253 170.666667-93.863253L853.333333-93.863253C928.733867-93.863253 989.866667-32.730453 989.866667 42.67008L955.733333 725.336747C955.733333 825.654613 883.234133 861.87008 785.066667 861.87008ZM785.066667 793.603413C887.466667 793.603413 887.466667 750.86848 887.466667 725.336747 887.466667 724.210347 887.5008 723.083947 887.569067 721.923413L921.6 41.270613C920.814933 4.27008 890.504533-25.596587 853.333333-25.596587L170.666667-25.596587C133.495467-25.596587 103.185067 4.27008 102.4 41.270613L136.430933 721.923413C136.4992 723.083947 136.533333 724.210347 136.533333 725.336747 136.533333 754.14528 136.533333 793.603413 238.933333 793.603413L785.066667 793.603413ZM273.066667 613.180952C273.066667 486.080546 385.247604 384 530.61818 384 645.630686 384 750.933333 492.662538 750.933333 613.180952L750.933333 691.2 682.666667 691.2 682.666667 613.180952C682.666667 529.893697 607.439896 452.266667 530.61818 452.266667 421.58818 452.266667 341.333333 525.29564 341.333333 613.180952L341.333333 691.2 273.066667 691.2 273.066667 613.180952Z"  horiz-adv-x="1024" />

    
    <glyph glyph-name="topBrand" unicode="&#58887;" d="M771.758092-105.19664499999999L197.945281-105.19664499999999c-19.809161 0-35.863812 16.054651-35.863812 35.863812L162.081469 647.933181c0 19.809161 16.054651 35.863812 35.863812 35.863812l573.812811 0c19.809161 0 35.863812-16.054651 35.863812-35.863812l0-717.267037C807.621904-89.14199399999995 791.567253-105.19664499999999 771.758092-105.19664499999999zM233.80807-33.47004300000003l502.08621 0L735.89428 612.0703920000001 233.80807 612.0703920000001 233.80807-33.47004300000003zM484.866013 361.02677600000004c-49.437969 0-89.657996 40.220027-89.657996 89.657996s40.220027 89.657996 89.657996 89.657996 89.657996-40.220027 89.657996-89.657996S534.303982 361.02677600000004 484.866013 361.02677600000004zM484.866013 468.61719c-9.890254 0-17.931395-8.04114-17.931395-17.931395 0-9.890254 8.04114-17.931395 17.931395-17.931395 9.890254 0 17.931395 8.04114 17.931395 17.931395C502.797407 460.575026 494.756267 468.61719 484.866013 468.61719zM592.455403 791.386384l-71.726601 0c0 9.890254-8.04114 17.931395-17.931395 17.931395s-17.931395-8.04114-17.931395-17.931395l-71.726601 0c0 49.437969 40.220027 89.657996 89.657996 89.657996S592.455403 840.824353 592.455403 791.386384zM413.138388 791.386384l71.726601 0 0-286.906405-71.726601 0 0 286.906405ZM520.728802 791.386384l71.726601 0 0-143.453203-71.726601 0 0 143.453203Z"  horiz-adv-x="1024" />

    
    <glyph glyph-name="home_btn_brand" unicode="&#58947;" d="M227.6 583.5c-31.4 0-56.9 25.5-56.9 56.8 0 31.4 25.5 56.8 56.9 56.8 31.5 0 56.9-25.4 56.9-56.8 0-31.3-25.5-56.8-56.9-56.8z m568.9 0c-31.4 0-56.9 25.5-56.9 56.8 0 31.4 25.5 56.8 56.9 56.8 31.5 0 56.9-25.4 56.9-56.8 0-31.3-25.5-56.8-56.9-56.8zM910.2-126.4H113.8C51-126.4 0-75.5 0-12.8V782.3C0 844.9 51 895.9 113.8 895.9H910.2c62.8 0 113.8-51 113.8-113.6v-795.1c0-62.7-51-113.6-113.8-113.6z m56.9 908.7c0 31.3-25.5 56.8-56.9 56.8H113.8c-31.4 0-56.9-25.5-56.9-56.8v-795.1c0-31.4 25.5-56.8 56.9-56.8H910.2c31.4 0 56.9 25.4 56.9 56.8V782.3zM512 327.9C339.5 327.9 199.2 468 199.2 640.3c0 15.7 12.7 28.5 28.4 28.5s28.5-12.8 28.5-28.5c0-140.9 114.8-255.5 255.9-255.5 141.2 0 256.1 114.6 256.1 255.5 0 15.7 12.7 28.5 28.4 28.5s28.5-12.8 28.5-28.5c0-172.3-140.4-312.4-313-312.4z m0 0"  horiz-adv-x="1024" />

    
    <glyph glyph-name="collection" unicode="&#59293;" d="M490.261333 722.56a49.066667 49.066667 0 0 0 64.064-19.178667l1.664-3.093333 87.850667-177.813333 196.352-28.501334a49.066667 49.066667 0 0 0 29.717333-81.066666l-2.538666-2.645334L725.333333 272l33.536-195.349333a49.066667 49.066667 0 0 0-68.010666-53.269334l-3.157334 1.514667L512 117.141333l-175.701333-92.266666a49.066667 49.066667 0 0 0-71.637334 48.426666l0.469334 3.328L298.666667 271.978667 156.629333 410.24a49.066667 49.066667 0 0 0 23.893334 83.114667l3.285333 0.597333 196.352 28.501333 87.850667 177.813334a49.066667 49.066667 0 0 0 22.250666 22.272z m-67.626666-258.581333l-199.658667-28.992 144.469333-140.650667-34.133333-198.741333L512 189.44l178.688-93.845333-34.133333 198.741333 144.469333 140.650667-199.658667 28.992L512 644.842667l-89.386667-180.864z"  horiz-adv-x="1024" />

    
    <glyph glyph-name="collection-fill" unicode="&#59294;" d="M490.261333 722.56a49.066667 49.066667 0 0 0 64.064-19.178667l1.664-3.093333 87.850667-177.813333 196.352-28.501334a49.066667 49.066667 0 0 0 29.717333-81.066666l-2.538666-2.645334L725.333333 272l33.536-195.349333a49.066667 49.066667 0 0 0-68.010666-53.269334l-3.157334 1.514667L512 117.141333l-175.701333-92.266666a49.066667 49.066667 0 0 0-71.637334 48.426666l0.469334 3.328L298.666667 271.978667 156.629333 410.24a49.066667 49.066667 0 0 0 23.893334 83.114667l3.285333 0.597333 196.352 28.501333 87.850667 177.813334a49.066667 49.066667 0 0 0 22.250666 22.272z"  horiz-adv-x="1024" />

    
    <glyph glyph-name="mayLike" unicode="&#58964;" d="M892.928 740.352c-57.856 57.856-128 81.92-203.264 69.632-59.392-9.216-120.32-40.96-177.152-92.16-57.344 50.688-117.76 82.944-177.664 92.16-74.752 11.776-145.408-11.776-203.264-69.632C73.216 681.984 45.568 604.672 53.248 524.288c8.192-79.872 49.664-160.256 120.832-230.912l90.624-90.624c48.128-48.64 97.28-97.792 98.304-98.816 0.512-0.512 1.024-0.512 1.536-1.024l147.968-147.968 44.032 43.52 4.096 3.584c8.192 0 238.592 240.128 289.28 291.84 70.656 70.656 112.64 151.04 120.832 230.912 8.192 79.872-19.456 157.184-77.824 215.552zM184.832 553.9839999999999c-5.632-16.384-8.704-31.232-9.728-42.496-1.536-12.288-11.776-21.504-24.576-21.504h-1.536c-15.36 0-27.136 13.824-24.576 29.184 3.584 18.432 8.192 35.84 13.824 51.712 5.632 14.848 22.528 20.48 36.352 12.8h0.512c9.216-5.632 13.312-18.432 9.728-29.696z m194.56 163.328c0-11.776-8.192-22.016-19.968-24.576-71.68-11.776-114.688-43.52-142.336-77.824-7.68-9.728-21.504-12.288-32.256-6.144H184.32c-12.288 7.68-15.36 25.088-6.656 36.864C231.936 716.8 309.248 739.328 350.72 745.472c15.36 2.048 28.16-9.216 28.16-24.576v-3.584h0.512z"  horiz-adv-x="1024" />

    
    <glyph glyph-name="like" unicode="&#58909;" d="M177.972894 545.395468h-36.728972c-79.083519 0-141.243816-65.926179-141.243816-143.28948v-386.816508C0.000106-64.956348 64.949945-128 141.243922-128h33.892937c79.083519 0 141.197324 65.879686 144.033358 143.28948v386.816508c0 80.245828-64.949839 143.28948-141.197323 143.28948zM1155.195992 482.351816c-33.892937 37.240387-81.919554 57.325091-132.735713 57.325091l-206.193655 2.882527a329.16597 329.16597 0 0 1 14.13368 134.6419c-14.13368 134.688392-112.976456 226.371343-189.223941 217.770255-39.565006-2.882527-81.919554-34.35786-76.293977-111.721162 0-2.882527 14.13368-169.046253-96.006741-295.180049-33.892937-34.35786-50.816159-80.199336-50.816159-128.923339v-298.016083c0-103.166566 81.873061-186.248429 183.551871-186.248429l355.899083-2.882527c149.705427 0 242.922627 180.529868 251.384237 481.381986-2.836034 45.841476-19.805749 94.565478-53.698685 128.96983z"  horiz-adv-x="1209" />

    
    <glyph glyph-name="phone" unicode="&#58906;" d="M676.2 832H347.8c-41.1 0-74.7-33.6-74.7-74.7v-746.7c0-41.1 33.6-74.7 74.7-74.7h328.5c41.1 0 74.7 33.6 74.7 74.7V757.3c-0.1 41.1-33.7 74.7-74.8 74.7m-209-59.7h89.6c8.2 0 14.9-6.7 14.9-14.9s-6.7-14.9-14.9-14.9h-89.6c-8.2 0-14.9 6.7-14.9 14.9s6.7 14.9 14.9 14.9M512-34.1c-24.8 0-44.8 20-44.8 44.8 0 24.8 20 44.8 44.8 44.8 24.8 0 44.8-20 44.8-44.8 0-24.8-20-44.8-44.8-44.8m209.1 119.4H303V682.7h418.1v-597.4z"  horiz-adv-x="1024" />

    
    <glyph glyph-name="shopping" unicode="&#59549;" d="M512 341.333333a213.333333 213.333333 0 0 0-213.333333 213.333334h85.333333a128 128 0 0 1 128-128 128 128 0 0 1 128 128h85.333333a213.333333 213.333333 0 0 0-213.333333-213.333334m0 426.666667a128 128 0 0 0 128-128H384a128 128 0 0 0 128 128m298.666667-128h-85.333334a213.333333 213.333333 0 0 1-213.333333 213.333333 213.333333 213.333333 0 0 1-213.333333-213.333333H213.333333c-47.36 0-85.333333-37.973333-85.333333-85.333333v-512a85.333333 85.333333 0 0 1 85.333333-85.333334h597.333334a85.333333 85.333333 0 0 1 85.333333 85.333334V554.666667a85.333333 85.333333 0 0 1-85.333333 85.333333z"  horiz-adv-x="1024" />

    
    <glyph glyph-name="truck" unicode="&#58935;" d="M794.624 529.76c-5.952 8.896-15.936 14.24-26.624 14.24l-32 0c-17.696 0-32-14.304-32-32l0-192c0-17.696 14.304-32 32-32l128 0c17.696 0 32 14.304 32 32l0 48c0 6.304-1.888 12.512-5.376 17.76l-96 144zM864 320l-128 0 0 192 32 0 96-144 0-48zM1007.872 405.248l-128 192c-17.856 26.784-47.744 42.752-79.872 42.752l-128 0 0 64c0 52.928-43.072 96-96 96l-480 0c-52.928 0-96-43.072-96-96l0-352c0-52.928 43.072-96 96-96l0 0 0-96c0-52.928 43.072-96 96-96l36.544 0c14.304-55.072 64-96 123.488-96 59.424 0 109.12 40.928 123.424 96l169.024 0c14.304-55.072 64-96 123.488-96 59.424 0 109.12 40.928 123.424 96l36.608 0c52.928 0 96 43.072 96 96l0 192c0 19.008-5.568 37.44-16.128 53.248zM96 320c-17.664 0-32 14.304-32 32l0 352c0 17.696 14.336 32 32 32l480 0c17.696 0 32-14.304 32-32l0-352c0-17.696-14.304-32-32-32l-480 0zM352.032 32c-35.36 0-64 28.672-64 64s28.64 64 64 64c35.328 0 64-28.672 64-64s-28.704-64-64-64zM768 32c-35.36 0-64 28.672-64 64s28.64 64 64 64c35.328 0 64-28.672 64-64s-28.672-64-64-64zM960 160c0-17.696-14.304-32-32-32l-36.576 0c-14.304 55.072-64 96-123.424 96-59.488 0-109.184-40.928-123.488-96l-169.024 0c-14.304 55.072-64 96-123.424 96-59.488 0-109.184-40.928-123.488-96l-36.576 0c-17.664 0-32 14.304-32 32l0 96 416 0c52.928 0 96 43.072 96 96l0 224 128 0c10.688 0 20.672-5.344 26.624-14.24l128-192c3.488-5.248 5.376-11.456 5.376-17.76l0-192z"  horiz-adv-x="1024" />

    
    <glyph glyph-name="message" unicode="&#58916;" d="M950.784 822.812444H73.130667C32.796444 822.812444 0 782.762667 0 733.496889v-551.367111c0-49.265778 32.796444-89.344 73.130667-89.344h280.433777l158.350223-147.598222 158.350222 147.598222h280.462222c40.362667 0 73.130667 40.049778 73.130667 89.344V733.496889c0.056889 49.265778-32.711111 89.315556-73.073778 89.315555z m24.348444-640.711111c0-18.346667-10.865778-33.223111-24.348444-33.223111H658.232889v-0.568889l-0.341333 0.398223-145.948445-135.992889-145.948444 135.992889-0.341334-0.398223v0.568889H73.130667c-13.454222 0-24.376889 14.876444-24.376889 33.223111V733.496889c0 18.289778 10.951111 33.166222 24.376889 33.166222h877.624889c13.511111 0 24.348444-14.876444 24.348444-33.166222v-551.395556zM781.368889 591.701333H242.488889c-14.876444 0-26.936889-12.544-26.936889-28.017777 0-15.502222 12.060444-28.103111 26.936889-28.103112H781.368889c14.933333 0 27.022222 12.572444 27.022222 28.103112 0 15.473778-12.088889 28.017778-27.022222 28.017777zM511.971556 360.078222H242.488889c-14.876444 0-26.936889-12.572444-26.936889-28.074666s12.060444-28.046222 26.936889-28.046223h269.454222c14.876444 0 26.936889 12.544 26.936889 28.046223s-12.032 28.074667-26.908444 28.074666z"  horiz-adv-x="1024" />

    
    <glyph glyph-name="house-things-" unicode="&#59243;" d="M983.635934 707.147541l-38.148196 80.761705a18.364852 18.364852 0 0 1-16.593836 10.550557H425.513967c-10.147672 0-18.373246-8.284328-18.373246-18.490754 0-10.21482 8.225574-18.482361 18.38164-18.48236h491.755016l33.170885-70.202755a18.364852 18.364852 0 0 1 16.60223-10.55895c2.643934 0 5.329836 0.579148 7.881442 1.796196a18.532721 18.532721 0 0 1 8.704 24.634754zM1072.581246 518.891016l-68.289049 144.560263a18.331279 18.331279 0 0 1-24.483672 8.75436 18.532721 18.532721 0 0 1-8.712394-24.62636l55.808-118.137705H49.554885l109.618361 232.045115h28.672v-102.626623c0-10.21482 8.225574-18.490754 18.381639-18.490755h166.609836c10.156066 0 18.381639 8.275934 18.38164 18.490755V875.78859c0 10.21482-8.225574 18.490754-18.38164 18.490754H206.226885c-10.156066 0-18.381639-8.275934-18.381639-18.490754v-77.328787h-40.288525c-7.084066 0-13.547016-4.112787-16.585442-10.558951L3.860984 518.891016a18.583082 18.583082 0 0 1 1.065967-17.810885 18.348066 18.348066 0 0 1 15.536262-8.611672h939.192656v-581.766295H116.794754V453.950951c0 10.206426-8.225574 18.482361-18.381639 18.48236s-18.381639-8.275934-18.38164-18.48236v-561.739541c0-10.21482 8.225574-18.490754 18.38164-18.490754h879.632787c10.147672 0 18.373246 8.275934 18.373246 18.490754V492.460066h59.568262c6.295082 0 12.170492 3.256656 15.527869 8.620065 3.374164 5.36341 3.777049 12.086557 1.065967 17.810885zM224.600131 857.30623h129.863344v-29.880656H224.600131v29.880656z m0-66.862164h129.863344V677.35082H224.600131V790.435672zM501.474623 142.419934h-9.803541V377.839213c0 10.206426-8.225574 18.490754-18.381639 18.490754H184.177311c-10.156066 0-18.381639-8.284328-18.381639-18.490754v-235.419279h-9.795147c-10.156066 0-18.381639-8.284328-18.38164-18.490754v-61.624655c0-10.21482 8.225574-18.490754 18.38164-18.490755h30.636065c10.139279 0 18.373246 8.275934 18.373246 18.490755 0 10.206426-8.225574 18.482361-18.381639 18.48236h-12.254427v24.651541h308.736v-24.651541H235.620721c-10.147672 0-18.381639-8.275934-18.381639-18.48236 0-10.21482 8.233967-18.490754 18.381639-18.490755h265.853902c10.156066 0 18.381639 8.275934 18.381639 18.490755v61.624655c0 10.21482-8.225574 18.490754-18.381639 18.490754z m-191.118689 0H202.550557v89.977705h107.805377v-89.977705z m0 126.95082H202.550557v89.977705h107.805377v-89.977705z m144.560263-126.95082H347.11082v89.977705h107.805377v-89.977705z m0 126.95082H347.11082v89.977705h107.805377v-89.977705zM920.466885 142.419934h-9.803541V377.839213c0 10.206426-8.225574 18.490754-18.381639 18.490754H603.16118c-10.156066 0-18.381639-8.284328-18.381639-18.490754v-235.419279h-9.803541c-10.147672 0-18.373246-8.284328-18.373246-18.490754v-61.624655c0-10.21482 8.225574-18.490754 18.381639-18.490755h345.474099c10.156066 0 18.381639 8.275934 18.381639 18.490755v61.624655c0 10.21482-8.225574 18.490754-18.381639 18.490754z m-154.372196 89.977705h42.470819c10.156066 0 18.381639 8.275934 18.38164 18.490754 0 10.206426-8.225574 18.482361-18.38164 18.482361h-42.470819v89.977705h107.81377v-89.977705h-16.342033c-10.156066 0-18.381639-8.275934-18.381639-18.490754 0-10.206426 8.225574-18.490754 18.381639-18.490754h16.342033v-89.977705H766.094689v89.977705zM621.534426 359.348459h107.813771v-89.977705H621.534426v89.977705z m0-126.95082h107.813771v-89.977705H621.534426v89.977705z m280.55082-151.610754H593.357639v24.651541h308.727607v-24.651541z"  horiz-adv-x="1074" />

    
    <glyph glyph-name="Dollar" unicode="&#59030;" d="M1621.333333 85.333333v85.333334a85.333333 85.333333 0 0 0 85.333334 85.333333V725.333333a85.333333 85.333333 0 0 0-85.333334 85.333334H426.666667a85.333333 85.333333 0 0 0-85.333334-85.333334H256V896h1536v-810.666667h-170.666667zM1450.666667 640h85.333333v-768H0V640h1450.666667z m-85.333334-85.333333H170.666667a85.333333 85.333333 0 0 0-85.333334-85.333334v-426.666666a85.333333 85.333333 0 0 0 85.333334-85.333334h1194.666666a85.333333 85.333333 0 0 0 85.333334 85.333334V469.333333a85.333333 85.333333 0 0 0-85.333334 85.333334zM805.034667 56.618667h-3.584V0h-66.474667v56.618667h-3.541333A86.869333 86.869333 0 0 0 640 137.941333v36.138667h67.882667v-28.245333a30.336 30.336 0 0 1 27.050666-27.776v113.066666h-8.533333A81.066667 81.066667 0 0 0 640 304.512v69.461333a86.869333 86.869333 0 0 0 91.349333 81.322667h3.541334V512h66.474666v-56.704h3.584a88.021333 88.021333 0 0 0 91.349334-81.322667v-36.693333h-67.797334v29.397333a29.866667 29.866667 0 0 1-27.050666 27.178667v-105.642667h13.098666a78.293333 78.293333 0 0 0 81.834667-72.874666v-77.354667a87.253333 87.253333 0 0 0-91.349333-81.365333z m-70.058667 337.066666a30.165333 30.165333 0 0 1-27.050667-27.221333v-53.674667a27.434667 27.434667 0 0 1 27.050667-24.021333v105.130667z m93.525333-191.018666a30.677333 30.677333 0 0 1-27.050666 26.666666v-111.445333a29.866667 29.866667 0 0 1 27.050666 27.733333v57.258667z"  horiz-adv-x="1792" />

    
    <glyph glyph-name="language" unicode="&#59223;" d="M446.864 280q-0.576-1.728-7.136 0.288t-18.016 6.56l-11.424 5.152q-25.152 11.424-49.728 28-4 2.848-23.424 18.016t-21.728 16.288q-38.272-58.848-76.576-103.424-46.272-54.272-60-62.848-2.272-1.152-11.136-2.272t-10.56 0q3.424 2.272 46.848 52.576 12 13.728 48.864 65.728t44.864 67.424q9.728 17.152 29.152 56.288t20.576 44.288q-4.576 0.576-62.848-18.848-4.576-1.152-15.712-4.288t-19.712-5.44-9.728-2.848q-1.152-1.152-1.152-6.016t-0.576-5.44q-2.848-5.728-17.728-8.576-13.152-4-26.848 0-10.272 2.272-16 12-2.272 3.424-2.848 13.152 3.424 1.152 14.016 2.848t16.864 3.424q33.152 9.152 60 18.272 57.152 20 58.272 20 5.728 1.152 24.576 11.136t25.152 12.288q5.152 1.728 12.288 4.576t8.288 3.136 3.424-0.288q1.152-6.848-0.576-18.848 0-1.152-7.136-15.424t-15.136-30.56-9.728-19.136q-14.272-28.576-44-74.848l36.576-16q6.848-3.424 42.56-18.272t38.56-16q2.272-0.576 6.016-14.56t2.56-17.44zM329.712 557.728q1.728-8.576-2.272-16-6.848-13.152-28.576-21.728-17.152-6.848-34.272-6.848-14.848 1.728-28 14.848-8 8.576-10.272 23.424l0.576 1.728q1.728-1.728 11.136-2.848t15.136 0 33.152 9.152q20.576 6.848 31.424 8 9.728 0 12-9.728zM728.56 484l36-129.728-79.424 24zM95.408 26.848l396.576 132.576 0 589.728-396.576-133.152 0-589.152zM804.56 208l58.272-17.728-103.424 375.424-57.152 17.728-123.424-306.272 58.272-17.728 25.728 62.848 120.576-37.152zM517.136 757.728l327.424-105.152 0 217.152zM694.864 1.728l90.272-7.424-30.848-91.424-22.848 37.728q-74.272-47.424-157.728-61.728-33.152-6.848-52-6.848l-48 0q-45.152 0-114.016 22.272t-104.864 48.576q-4.576 4-4.576 9.152 0 4.576 2.848 7.712t7.424 3.136q2.272 0 10.272-4.288t17.44-9.44 11.712-6.272q41.728-21.152 91.136-35.136t90.016-14.016q54.272 0 95.424 8.288t89.728 28.864q8.576 4 17.44 8.864t19.424 10.848 16.288 9.44zM950.864 618.272l0-616.576-442.272 140.576q-8-3.424-214.272-72.864t-210.272-69.44q-7.424 0-10.272 7.424 0 0.576-0.576 1.728l0 616q1.728 5.152 2.272 5.728 2.848 3.424 11.424 6.272 60.576 20 85.152 28.576l0 219.424 318.848-113.152q1.152 0 91.712 31.424t180.576 62.016 92.288 30.56q11.424 0 11.424-12l0-238.848z"  horiz-adv-x="1024" />

    
    <glyph glyph-name="facebook" unicode="&#58883;" d="M511.922276 384.390779m-511.609221 0a511.609221 511.609221 0 1 1 1023.218442 0 511.609221 511.609221 0 1 1-1023.218442 0ZM873.837341 745.401224c199.795873-199.795873 199.804509-523.742792-0.008636-723.553779-199.804509-199.795873-523.757905-199.795873-723.553778 0L873.837341 745.401224zM1020.219594 326.767111L650.137037 696.858303l-192.146542-192.146542 11.44701-11.44701-109.398609-109.389973 89.5423-89.542301-11.777336-11.770859 96.941188-96.941188-111.758394-111.758395 190.918072-190.918072c215.291005 43.568588 381.473432 222.312068 406.314868 443.823148zM422.47713 574.445251v-85.800756h-62.859239v-104.923006h62.859239v-311.763691h129.125378V383.721489h86.649243s8.117834 50.319776 12.045052 105.318102h-98.202043v71.745677c0 10.71295 14.072352 25.132901 27.991414 25.132901h70.355282V695.146217h-95.656584c-135.505218 0.006477-132.307742-105.013683-132.307742-120.700966z"  horiz-adv-x="1024" />

    
    <glyph glyph-name="heart" unicode="&#58914;" d="M512-32c-32 0-57.6 19.2-70.4 38.4-38.4 38.4-288 339.2-307.2 364.8-44.8 44.8-70.4 108.8-70.4 172.8 0 64 25.6 128 70.4 172.8l6.4 6.4c44.8 44.8 108.8 70.4 172.8 70.4 64 0 128-25.6 172.8-70.4v-6.4s6.4-12.8 19.2-12.8c12.8 0 19.2 6.4 19.2 6.4l6.4 6.4c44.8 44.8 108.8 70.4 172.8 70.4 64 0 128-25.6 172.8-70.4l6.4-6.4c44.8-44.8 70.4-108.8 70.4-172.8 0-64-25.6-128-70.4-172.8-19.2-25.6-262.4-320-307.2-364.8-6.4-6.4-32-32-64-32z m-198.4 774.4c-51.2 0-96-19.2-134.4-57.6l-6.4-6.4c-38.4-38.4-57.6-83.2-57.6-134.4s19.2-96 57.6-134.4c96-115.2 275.2-332.8 307.2-364.8 12.8-12.8 25.6-19.2 32-19.2 6.4 0 19.2 12.8 32 19.2 32 32 211.2 249.6 307.2 364.8 38.4 38.4 57.6 83.2 57.6 134.4s-19.2 96-57.6 134.4l-6.4 6.4c-38.4 38.4-83.2 57.6-134.4 57.6s-96-19.2-134.4-51.2c-6.4-6.4-25.6-32-64-32s-57.6 25.6-64 32c-38.4 32-83.2 51.2-134.4 51.2zM185.6 563.2c-12.8 0-19.2 12.8-12.8 19.2 6.4 25.6 19.2 44.8 38.4 64l6.4 6.4c38.4 38.4 89.6 51.2 140.8 38.4 6.4 0 12.8-6.4 12.8-19.2 0-6.4-6.4-12.8-19.2-12.8-38.4 6.4-83.2 0-115.2-32l-6.4-6.4c-12.8-12.8-25.6-32-32-51.2 0-6.4-6.4-6.4-12.8-6.4zM416 627.2c-6.4 0-6.4 0-12.8 6.4s-12.8 6.4-12.8 12.8c-6.4 6.4-6.4 12.8-6.4 19.2 6.4 6.4 12.8 6.4 19.2 6.4l19.2-19.2c6.4-6.4 6.4-12.8 0-19.2 0-6.4-6.4-6.4-6.4-6.4z"  horiz-adv-x="1024" />

    
    <glyph glyph-name="user" unicode="&#58915;" d="M902.4 77.9c-37 119.1-128.8 216.6-245.5 260.9-6.3 2.4-13.5 1.4-19-2.6-36.7-27-80.3-41.2-125.9-41.2-45.6 0-89.2 14.2-125.9 41.2-5.5 4-12.6 5-19 2.6C250.3 294.5 158.6 197 121.6 77.9c-10.4-33.4-4.4-68.8 16.4-97 20.8-28.2 52.8-44.4 87.8-44.4h572.4c35 0 67 16.2 87.8 44.4 20.8 28.2 26.8 63.5 16.4 97z m-48.7-73.3c-13.1-17.8-33.4-28.1-55.5-28.1H225.8c-22.1 0-42.4 10.2-55.5 28.1-13.1 17.8-16.9 40.2-10.3 61.3C192.3 170 271 255.8 371.6 297.4c41.6-27.8 89.9-42.5 140.4-42.5 50.4 0 98.8 14.7 140.4 42.5C753 255.8 831.7 170 864.1 66c6.5-21.2 2.8-43.5-10.4-61.4zM512 325.1c139.6 0 253.2 113.6 253.2 253.2C765.2 718 651.6 831.6 512 831.6S258.8 718 258.8 578.4c0-139.7 113.6-253.3 253.2-253.3z m0 466.3c117.5 0 213.1-95.6 213.1-213.1S629.5 365.2 512 365.2s-213.1 95.6-213.1 213.1S394.5 791.4 512 791.4z"  horiz-adv-x="1024" />

    
    <glyph glyph-name="cart1" unicode="&#59149;" d="M142.336 738.079744h794.278912c25.933824-5.18656 33.995776-16.26624 27.328512-43.600896-10.008576-41.039872-44.34944-151.419904-102.701056-329.962496-3.03104-8.609792-15.460352-16.093184-41.951232-20.4032-34.42688-5.60128-223.891456-21.588992-563.505152-47.461376l4.6592-52.27008c343.6032 26.175488 531.534848 42.033152 568.679424 48.0768 45.0816 7.334912 75.445248 25.616384 86.25152 56.3712 59.00288 180.514816 93.47584 291.320832 103.912448 334.113792 13.779968 56.497152-14.826496 95.812608-77.228032 107.097088L142.336 790.528v-52.448256zM290.569216 198.540288c-6.56384 3.171328-12.033024 6.40512-15.9744 9.472-2.59584 2.019328-4.8128 4.46464-6.68672 7.308288-4.005888 6.074368-5.732352 12.4928-5.955584 15.507456-1.133568 7.171072-1.133568 7.171072-4.902912 28.5696a47052.168192 47052.168192 0 0 1-12.21632 68.93568c-12.691456 71.31648-25.537536 142.633984-37.74464 209.206272-2.029568 11.063296-2.029568 11.063296-4.062208 22.109184-31.413248 170.554368-50.999296 268.884992-58.360832 285.78816-8.24832 18.93888-23.114752 32.402432-41.900032 40.794112C86.084608 893.682688 69.951488 896.0512 57.622528 895.996928L29.394944 896C13.727744 896.002048 1.026048 884.261888 1.024 869.779456 1.021952 855.296 13.7216 843.553792 29.387776 843.55072l28.351488-0.003072c4.617216 0.02048 12.83072-1.185792 20.342784-4.54144 6.77376-3.02592 11.344896-7.165952 13.955072-13.1584 4.871168-11.186176 26.09152-117.722112 55.06048-275.003392 2.028544-11.026432 2.028544-11.026432 4.05504-22.071296 12.189696-66.47808 25.020416-137.715712 37.69856-208.954368 4.436992-24.9344 8.538112-48.08704 12.204032-68.864 3.764224-21.368832 3.764224-21.368832 4.594688-26.108928 0.489472-8.26368 4.28544-22.372352 13.81376-36.825088 4.960256-7.52128 11.121664-14.319616 18.597888-20.13696 7.46496-5.807104 16.283648-11.02336 26.23488-15.828992 15.233024-7.359488 30.1056-12.5184 40.572928-15.437824l8.192-1.117184h538.55232c15.666176 0 28.366848 11.74016 28.366848 26.22464 0 14.482432-12.700672 26.223616-28.367872 26.223616H317.472768c-7.283712 2.259968-17.222656 5.915648-26.903552 10.591232zM369.468416-71.486464c29.5936 0 53.582848 22.176768 53.582848 49.533952 0 27.357184-23.990272 49.534976-53.582848 49.534976-29.5936 0-53.581824-22.177792-53.581824-49.534976s23.989248-49.533952 53.581824-49.533952z m0-55.36256C306.801664-126.849024 256-79.885312 256-21.952512S306.80064 82.944 369.468416 82.944c62.666752 0 113.46944-46.963712 113.46944-104.896512s-50.802688-104.896512-113.46944-104.896512zM766.780416-71.486464c29.5936 0 53.582848 22.176768 53.582848 49.533952 0 27.357184-23.990272 49.534976-53.582848 49.534976-29.5936 0-53.581824-22.177792-53.581824-49.534976s23.989248-49.533952 53.581824-49.533952z m0-55.36256C704.113664-126.849024 653.312-79.885312 653.312-21.952512S704.11264 82.944 766.780416 82.944c62.666752 0 113.46944-46.963712 113.46944-104.896512s-50.802688-104.896512-113.46944-104.896512z"  horiz-adv-x="1024" />

    
    <glyph glyph-name="google" unicode="&#59916;" d="M214.101333 384c0 32.512 5.546667 63.701333 15.36 92.928L57.173333 605.781333A491.861333 491.861333 0 0 1 4.693333 384c0-79.701333 18.858667-154.88 52.394667-221.610667l172.202667 129.066667A290.56 290.56 0 0 0 214.101333 384M516.693333 679.808c72.106667 0 137.258667-25.002667 188.458667-65.962667L854.101333 759.466667C763.349333 836.821333 646.997333 884.608 516.693333 884.608c-202.325333 0-376.234667-113.28-459.52-278.826667l172.373334-128.853333c39.68 118.016 152.832 202.88 287.146666 202.88M516.693333 88.192c-134.357333 0-247.509333 84.864-287.232 202.88l-172.288-128.853333c83.242667-165.546667 257.152-278.826667 459.52-278.826667 124.842667 0 244.053333 43.392 333.568 124.757333l-163.584 123.818667c-46.122667-28.458667-104.234667-43.776-170.026666-43.776M1005.397333 384c0 29.568-4.693333 61.44-11.648 91.008H516.650667V281.6h274.602666c-13.696-65.962667-51.072-116.650667-104.533333-149.632l163.541333-123.818667c93.994667 85.418667 155.136 212.650667 155.136 375.850667"  horiz-adv-x="1024" />

    
    <glyph glyph-name="menu" unicode="&#59486;" d="M182.857143 548.571429m-54.857143 0a54.857143 54.857143 0 1 1 109.714286 0 54.857143 54.857143 0 1 1-109.714286 0ZM182.857143 365.714286m-54.857143 0a54.857143 54.857143 0 1 1 109.714286 0 54.857143 54.857143 0 1 1-109.714286 0ZM182.857143 182.857143m-54.857143 0a54.857143 54.857143 0 1 1 109.714286 0 54.857143 54.857143 0 1 1-109.714286 0ZM292.571429 548.571429c0 20.205714 16.274286 36.571429 36.608 36.571428h511.926857C861.330286 585.142857 877.714286 568.905143 877.714286 548.571429c0-20.205714-16.274286-36.571429-36.608-36.571429H329.179429A36.498286 36.498286 0 0 0 292.571429 548.571429z m0-182.857143c0 20.205714 16.274286 36.571429 36.608 36.571428h511.926857c20.224 0 36.608-16.237714 36.608-36.571428 0-20.205714-16.274286-36.571429-36.608-36.571429H329.179429A36.498286 36.498286 0 0 0 292.571429 365.714286z m0-182.857143c0 20.205714 16.274286 36.571429 36.608 36.571428h511.926857c20.224 0 36.608-16.237714 36.608-36.571428 0-20.205714-16.274286-36.571429-36.608-36.571429H329.179429A36.498286 36.498286 0 0 0 292.571429 182.857143z"  horiz-adv-x="1024" />

    
    <glyph glyph-name="search" unicode="&#58895;" d="M419.405333 896c231.683703 0 419.456512-185.265077 419.456512-413.724553a408.862625 408.862625 0 0 0-101.179298-269.55557l275.748132-280.098278a35.108244 35.108244 0 0 0-0.767673-50.154634 36.336521 36.336521 0 0 0-50.819951 0.716495l-275.49224 279.944743a421.19657 421.19657 0 0 0-266.945482-94.628488C187.823987 68.499715 0 253.764792 0 482.275447 0 710.734923 187.823987 896 419.405333 896z m0-70.932983c-191.918243 0-347.499965-153.483416-347.499965-342.79157 0-189.359333 155.581722-342.842749 347.499965-342.842749s347.551143 153.534594 347.551144 342.842749c0 189.359333-155.581722 342.791571-347.499965 342.79157z"  horiz-adv-x="1024" />

    
    <glyph glyph-name="group" unicode="&#58900;" d="M971.32727305 263.73636357c-35.63636396 40.5454544-76.70000039 72.62727276-122.00909063 95.33636367-3.92727305 1.97272705-7.85454521 3.80909092-11.79090878 5.62727286l-18.10909073 8.32727285 15.92727276 11.99999971c61.46363672 46.29090937 96.73636377 116.77272714 96.73636376 193.35454541 0 133.37272705-108.5000001 241.87272714-241.87272714 241.87272714C556.86363594 820.2545452100001 448.36363672 711.75454511 448.36363672 578.37272754c0-78.18181787 38.2454543-151.97272734 102.27272695-197.39999971l16.50909112-11.71818193-18.24545479-8.74545468-7.13636367 7.89999961-0.32727305-0.41818185 4.46363614-8.92727314c-45.30909112-22.70909092-86.36363614-54.79999981-122.00909064-95.33636367-70.88181855-80.67272695-111.5454542-185.91818203-111.54545419-288.79090928 0-16.27272685 13.22727276-29.49999961 29.48181856-29.49999961 16.27272685 0 29.49999961 13.22727276 29.49999961 29.49999961 0 165.49999981 129.86363672 354.71818213 316.1999997 361.59999961 6.16363594-0.0454544 8.69090888 0.02727246 11.6454542 0.16363652 186.08181856-1.41818203 324.72727295-192.17272763 324.72727295-361.76363613 0-16.27272685 13.22727276-29.49999961 29.49999961-29.49999961s29.49999961 13.22727276 29.49999961 29.49999961C1082.89090918 77.79999960999999 1042.23636406 183.06363662 971.32727305 263.73636357zM687.1000001 395.55454541c-99.36363604 1.92727266-179.75454521 83.94545479-179.75454521 182.82727266C507.34545489 679.22727246 589.38181807 761.27272705 690.20909052 761.27272705c100.8545458 0 182.89090898-82.04545459 182.89090899-182.89090898 0-97.69090869-76.39090927-177.91818223-173.90000039-182.63636367L687.1000001 395.55454541zM1259.34545498-25.05454569999995c0-16.27272685 13.22727276-29.49999961 29.48181856-29.49999961 16.27272685 0 29.49999961 13.22727276 29.49999961 29.49999961 0 107.24545459-25.39090898 202.20909082-73.41818203 274.62727265-36.47272763 55.02727266-85.0454543 95.80909131-144.32727305 121.19090889l-17.01818174 7.3000002 13.71818144 12.46363594c13.34545488 12.1545457 24.45454511 25.06363594 33.9000003 39.4545454 24.78181817 37.8454544 36.33636357 84.99090938 36.33636357 148.39090928 0 133.37272705-108.5000001 241.87272714-241.85454521 241.87272715-16.27272685 0-29.49999961-13.22727276-29.49999961-29.49999961C896.16363594 774.4999998 909.39090869 761.27272705 925.66363643 761.27272705c100.82727247 0 182.87272705-82.04545459 182.87272704-182.89090898 0-106.00909102-33.94545469-142.5999999-110.05454531-184.51818193-10.46363643-4.5545458-17.01818174-13.01818183-18.57272695-23.13636328-0.25454531-1.59999961-0.34545498-3.13636377-0.34545498-4.6454546-0.02727246-4.92727237 1.23636357-9.80909122 3.58181807-14.15454521 4.88181797-8.97272754 13.8999999-14.69090918 24.12727294-15.3454544C1165.56363652 310.25454579999996 1259.34545498 175.11818173999995 1259.34545498-25.05454569999995zM371.87272724 336.43636405999996c11.41818222 0.79090927 20.43636328 6.50909092 25.31818214 15.50909092 2.37272695 4.34545489 3.62727247 9.25454531 3.6 14.15454522-0.09090878 2.41818223-0.18181846 3.53636367-0.34545498 4.64545459-1.55454521 10.09090898-8.10909053 18.52727256-17.55454571 22.60000019-77.16363662 42.42727266-111.0999999 79.01818154-111.09999991 185.02727255C271.79090878 679.22727246 353.83636338 761.27272705 454.68181777 761.27272705c16.2545458 0 29.48181855 13.22727276 29.48181856 29.48181855 0 16.27272685-13.22727276 29.49999961-29.48181856 29.49999961-133.37272705 0-241.87272714-108.5000001-241.87272714-241.87272714 0-63.37272744 11.55454541-110.51818154 36.36363603-148.39090928 9.39090937-14.3454542 20.48181855-27.24545479 33.90000029-39.45454541l13.71818145-12.46363594-17.01818174-7.3000002c-59.30909121-25.39090898-107.87272734-66.16363623-144.34545498-121.19090888C87.39090898 177.11818213000004 62 82.14545449000002 62-25.05454569999995c0-16.27272685 13.22727276-29.49999961 29.49999961-29.49999961 16.2545458 0 29.48181855 13.22727276 29.48181855 29.49999961C120.98181816 175.11818173999995 214.76363662 310.25454579999996 371.87272724 336.43636405999996z"  horiz-adv-x="1431" />

    
    <glyph glyph-name="cart" unicode="&#58893;" d="M375.479048 87.34923100000003a104.87634 104.87634 0 0 0 40.901772-8.040519 108.02263 108.02263 0 0 0 34.95878-22.024031 97.185409 97.185409 0 0 0 22.723207-34.958781 109.071394 109.071394 0 0 0 0-81.803545 97.185409 97.185409 0 0 0-22.723207-34.95878 116.412738 116.412738 0 0 0-34.95878-22.723207 99.982111 99.982111 0 0 0-40.901772-8.390107 98.933348 98.933348 0 0 0-41.251361 8.390107 118.859852 118.859852 0 0 0-34.95878 22.723207 97.185409 97.185409 0 0 0-22.723207 34.95878 109.071394 109.071394 0 0 0 0 81.803545 97.185409 97.185409 0 0 0 22.723207 34.958781 109.770569 109.770569 0 0 0 34.95878 22.024031 104.87634 104.87634 0 0 0 41.251361 8.040519z m471.593942-2.447114a110.469745 110.469745 0 0 0 41.251361-8.04052 99.982111 99.982111 0 0 0 34.95878-22.024031 109.071394 109.071394 0 0 0 22.723207-34.95878 102.429226 102.429226 0 0 0 0-81.803545 109.071394 109.071394 0 0 0-22.723207-34.95878 107.323455 107.323455 0 0 0-34.95878-22.723207 104.87634 104.87634 0 0 0-41.251361-8.390108 99.982111 99.982111 0 0 0-40.901772 8.390108 107.323455 107.323455 0 0 0-56.283636 56.283635 102.079638 102.079638 0 0 0 0 81.803546 109.071394 109.071394 0 0 0 22.723207 34.95878 101.380462 101.380462 0 0 0 34.95878 22.024031 104.87634 104.87634 0 0 0 40.901773 8.04052z m190.525352 644.290316a115.713562 115.713562 0 0 0 49.29188-8.390107 56.283636 56.283636 0 0 0 24.820733-20.975268 47.543941 47.543941 0 0 0 6.642169-26.568673 88.795301 88.795301 0 0 0-3.845466-24.471146l-14.3331-41.950536q-10.837222-31.81249-24.471146-69.91756T1048.785151 461.408178q-12.934749-37.405895-19.926504-59.080338a127.949135 127.949135 0 0 0-37.405895-62.925804 88.096126 88.096126 0 0 0-55.58446-17.47939h-594.299261l17.129802-102.079638H929.925299a45.096826 45.096826 0 0 0 54.535697-46.495178 69.91756 69.91756 0 0 0-10.837222-39.153833 47.194353 47.194353 0 0 0-42.649711-16.430627h-594.299261a67.120858 67.120858 0 0 0-38.10507 10.138046 85.998599 85.998599 0 0 0-25.51991 26.568673 161.859152 161.859152 0 0 0-16.430627 34.95878 327.214181 327.214181 0 0 0-9.788458 34.95878q0 6.642168-6.29258 32.861253t-11.885986 67.470446l-16.430626 87.39695-18.178566 97.185409q-21.674444 114.315211-48.942292 254.849506H60.150852a45.796002 45.796002 0 0 0-28.316612 8.739695 74.112614 74.112614 0 0 0-18.877741 20.276093 78.657255 78.657255 0 0 0-10.138047 25.519909A123.404494 123.404494 0 0 0 0.02175 843.507644 49.641468 49.641468 0 0 0 15.403613 880.913538 57.332399 57.332399 0 0 0 56.654974 895.945814H171.319772a81.803545 81.803545 0 0 0 34.95878-6.642168 61.527453 61.527453 0 0 0 21.674444-17.129803 65.722506 65.722506 0 0 0 11.186809-21.674443l5.593405-19.227329a255.548682 255.548682 0 0 0 5.942993-26.219085l4.544641-34.95878q3.495878-20.276092 6.642168-42.9993h775.73533z m0 0"  horiz-adv-x="1122" />

    
    <glyph glyph-name="flash" unicode="&#59016;" d="M157.6 353.6l283.2-59.2L320-117.60000000000002l543.2 534.4-283.2 59.2L700.8 888z"  horiz-adv-x="1024" />

    


  </font>
</defs>
</svg>
