<svg xmlns="http://www.w3.org/2000/svg" xmlns:xlink="http://www.w3.org/1999/xlink" width="199" height="48" viewBox="0 0 199 48">
    <defs>
        <path id="a" d="M11.144.284C5.127.284.25 5.16.249 11.177V22.075h10.895c6.016 0 10.893-4.877 10.895-10.893V.284H11.144z"/>
        <linearGradient id="b" x1="56.707%" x2="8.308%" y1="44.372%" y2="17.013%">
            <stop offset="0%" stop-color="#00D1C9"/>
            <stop offset="100%" stop-color="#00E25E"/>
        </linearGradient>
        <linearGradient id="d" x1="0%" y1="0%" y2="100%">
            <stop offset="0%" stop-color="#00D1C9"/>
            <stop offset="100%" stop-color="#00E25E"/>
        </linearGradient>
    </defs>
    <g fill="none" fill-rule="evenodd">
        <g fill="#FFF">
            <path d="M33.26 32.827c-.145.118-.426.177-.658.177h-.537v-1.322h.527c.252 0 .539.059.68.18.139.121.202.285.202.493a.57.57 0 0 1-.213.472zm1.229 1.368c.887-.248 1.46-.889 1.46-1.918 0-1.728-1.373-2.284-3.181-2.284h-3.122v6.713h2.498V34.61l1.492 2.096h2.873l-2.02-2.511zM23.555 29.993h5.067v1.748h-2.593v.79h2.389v1.65h-2.389v.776h2.672v1.75h-5.146zM11.638 34.277l.589-2.213h.068l.588 2.213h-1.245zm2.047-4.284h-2.85l-2.63 6.713h2.78l.243-.876h2.065l.242.876h2.78l-2.63-6.713zM20.294 29.993l-1.232 4.048h-.069l-1.232-4.048h-2.726l2.813 6.713h2.36l2.81-6.713zM3.197 40.275c1.595 0 2.574.934 2.827 2.287H4.627c-.23-.616-.649-1.033-1.43-1.033-1.078 0-1.715.946-1.715 2.232 0 1.276.637 2.233 1.715 2.233.781 0 1.2-.418 1.43-1.045h1.397c-.253 1.363-1.232 2.299-2.827 2.299-1.803 0-3.145-1.42-3.145-3.487s1.342-3.486 3.145-3.486M7.034 40.385h1.408v5.51h3.145v1.243H7.034zM15.06 41.528c-1.068 0-1.76.913-1.76 2.233s.692 2.233 1.76 2.233c1.077 0 1.78-.913 1.78-2.233s-.703-2.233-1.78-2.233m0 5.72c-1.882 0-3.19-1.474-3.19-3.487 0-2.024 1.308-3.486 3.19-3.486 1.88 0 3.2 1.462 3.2 3.486 0 2.013-1.32 3.487-3.2 3.487M19.184 44.421v-4.036h1.408v3.893c0 1.155.506 1.705 1.396 1.705.892 0 1.397-.55 1.397-1.705v-3.893h1.408v4.036c0 1.859-1.11 2.827-2.805 2.827-1.682 0-2.804-.968-2.804-2.827M28.387 45.895c1.286 0 1.99-.825 1.99-2.133 0-1.32-.704-2.145-1.99-2.145h-.935v4.278h.935zm-2.332-5.51h2.387c2.045 0 3.332 1.32 3.332 3.377 0 2.056-1.287 3.376-3.332 3.376h-2.387v-6.753zM37.114 41.584h-1.265v2.013h1.265c.726 0 1.078-.419 1.078-1.002 0-.604-.352-1.011-1.078-1.011zm-1.265 3.211v2.343h-1.397v-6.753h2.75c1.43 0 2.376.77 2.376 2.21 0 1.43-.946 2.2-2.376 2.2h-1.353zM40.586 40.385h1.408v5.51h3.145v1.243h-4.553zM48.22 44.322h1.65l-.825-2.243-.825 2.243zm1.54-3.937l2.585 6.753h-1.43l-.605-1.628h-2.53l-.593 1.628h-1.408l2.584-6.753h1.397zM52 40.385h5.763v1.231h-2.178v5.522h-1.419v-5.522H52zM58.751 47.138v-6.753h4.498v1.231h-3.101v1.716h2.87v1.22h-2.87v2.586zM67.191 41.528c-1.067 0-1.76.913-1.76 2.233s.693 2.233 1.76 2.233c1.078 0 1.782-.913 1.782-2.233s-.704-2.233-1.782-2.233m0 5.72c-1.88 0-3.19-1.474-3.19-3.487 0-2.024 1.31-3.486 3.19-3.486 1.881 0 3.2 1.462 3.2 3.486 0 2.013-1.319 3.487-3.2 3.487M72.818 43.464h1.298c.704 0 1.067-.374 1.067-.934 0-.573-.363-.946-1.067-.946h-1.298v1.88zm0 1.155v2.519h-1.397v-6.753h2.783c1.419 0 2.365.758 2.365 2.145 0 1.077-.594 1.76-1.54 1.99l1.782 2.618h-1.584l-1.672-2.519h-.737zM80.81 47.138l-1.671-4.41v4.41h-1.32v-6.753h1.672l1.804 4.762 1.793-4.762h1.65v6.753h-1.331v-4.41l-1.639 4.41zM5.171 29.993v3.387l-2.32-3.387H.342v6.713h2.5V33.32l2.32 3.387H7.67v-6.713z"/>
        </g>
        <g transform="translate(21.66 .441)">
            <mask id="c" fill="#fff">
                <use xlink:href="#a"/>
            </mask>
            <path fill="url(#b)" d="M.249 11.177c-.001 6.017 4.875 10.897 10.893 10.898 6.017.002 10.895-4.876 10.897-10.893C22.04 5.164 17.163.285 11.147.284 5.129.283.25 5.16.249 11.177" mask="url(#c)"/>
        </g>
        <g transform="translate(144 1)">
            <rect width="53.8" height="16.8" x=".6" y="1.6" stroke="#00D25A" stroke-width="1.2" rx="8.4"/>
            <path fill="#00D25A" d="M8.42 9.816c0-2.268 1.452-3.804 3.348-3.804 1.668 0 2.724.96 3 2.436h-1.224c-.288-.78-.792-1.308-1.776-1.308-1.296 0-2.088 1.128-2.088 2.676 0 1.536.78 2.676 2.088 2.676.984 0 1.488-.528 1.776-1.32h1.224c-.276 1.488-1.344 2.448-3 2.448-1.896 0-3.348-1.536-3.348-3.804zm12.18 1.02c0 1.632-1.032 2.784-2.532 2.784s-2.532-1.152-2.532-2.784 1.032-2.784 2.532-2.784S20.6 9.204 20.6 10.836zm-1.2 0c0-1.008-.468-1.752-1.332-1.752-.864 0-1.332.744-1.332 1.752s.468 1.752 1.332 1.752c.864 0 1.332-.744 1.332-1.752zm2.316 2.664V8.172h1.2v.504c.288-.336.816-.624 1.44-.624 1.212 0 1.884.804 1.884 1.98V13.5h-1.2v-3.264c0-.66-.324-1.092-1.008-1.092-.516 0-.984.324-1.116.852V13.5h-1.2zm5.568-1.536h1.224c.132.444.528.672 1.056.672.552 0 .912-.216.912-.636 0-.288-.18-.444-.624-.552l-1.104-.264c-.756-.18-1.32-.588-1.32-1.464 0-.96.852-1.668 2.016-1.668 1.248 0 1.956.6 2.136 1.572h-1.176c-.108-.348-.42-.588-.972-.588-.42 0-.852.192-.852.612 0 .24.168.396.552.492l1.128.264c.912.216 1.368.732 1.368 1.512 0 1.056-.876 1.704-2.076 1.704-1.248 0-2.112-.624-2.268-1.656zm10.212-1.128c0 1.632-1.032 2.784-2.532 2.784s-2.532-1.152-2.532-2.784 1.032-2.784 2.532-2.784 2.532 1.152 2.532 2.784zm-1.2 0c0-1.008-.468-1.752-1.332-1.752-.864 0-1.332.744-1.332 1.752s.468 1.752 1.332 1.752c.864 0 1.332-.744 1.332-1.752zM39.812 5.7v7.8h-1.2V5.7h1.2zm4.776 6.144h1.104c-.18 1.056-.96 1.776-2.244 1.776-1.488 0-2.52-1.128-2.52-2.772 0-1.596 1.044-2.796 2.496-2.796 1.5 0 2.316 1.068 2.316 2.628v.432h-3.636c.036.936.576 1.5 1.344 1.5.576 0 1.008-.252 1.14-.768zM43.436 9.06c-.66 0-1.152.408-1.296 1.176h2.412c-.012-.648-.384-1.176-1.116-1.176z"/>
        </g>
        <path fill="url(#d)" d="M1.104 21.54h19.838V1.691H1.104z" transform="translate(-1)"/>
    </g>
</svg>
